<svg width="155" height="132" viewBox="0 0 155 132" fill="none" xmlns="http://www.w3.org/2000/svg">
<path d="M20.888 72.88V81H16.016C12.544 81 9.83733 80.16 7.896 78.48C5.95467 76.7627 4.984 73.9813 4.984 70.136V57.704H1.176V49.752H4.984V42.136H14.56V49.752H20.832V57.704H14.56V70.248C14.56 71.1813 14.784 71.8533 15.232 72.264C15.68 72.6747 16.4267 72.88 17.472 72.88H20.888ZM35.798 54.96C36.918 53.2427 38.318 51.8987 39.998 50.928C41.678 49.92 43.5447 49.416 45.598 49.416V59.552H42.966C40.5767 59.552 38.7847 60.0747 37.59 61.12C36.3953 62.128 35.798 63.92 35.798 66.496V81H26.222V49.752H35.798V54.96ZM48.2711 65.32C48.2711 62.1093 48.8685 59.2907 50.0631 56.864C51.2951 54.4373 52.9565 52.5707 55.0471 51.264C57.1378 49.9573 59.4711 49.304 62.0471 49.304C64.2498 49.304 66.1725 49.752 67.8151 50.648C69.4951 51.544 70.7831 52.72 71.6791 54.176V49.752H81.2551V81H71.6791V76.576C70.7458 78.032 69.4391 79.208 67.7591 80.104C66.1165 81 64.1938 81.448 61.9911 81.448C59.4525 81.448 57.1378 80.7947 55.0471 79.488C52.9565 78.144 51.2951 76.2587 50.0631 73.832C48.8685 71.368 48.2711 68.5307 48.2711 65.32ZM71.6791 65.376C71.6791 62.9867 71.0071 61.1013 69.6631 59.72C68.3565 58.3387 66.7511 57.648 64.8471 57.648C62.9431 57.648 61.3191 58.3387 59.9751 59.72C58.6685 61.064 58.0151 62.9307 58.0151 65.32C58.0151 67.7093 58.6685 69.6133 59.9751 71.032C61.3191 72.4133 62.9431 73.104 64.8471 73.104C66.7511 73.104 68.3565 72.4133 69.6631 71.032C71.0071 69.6507 71.6791 67.7653 71.6791 65.376ZM86.2789 65.376C86.2789 62.128 86.9323 59.2907 88.2389 56.864C89.5829 54.4373 91.4309 52.5707 93.7829 51.264C96.1723 49.9573 98.8976 49.304 101.959 49.304C105.879 49.304 109.146 50.3307 111.759 52.384C114.41 54.4373 116.146 57.3307 116.967 61.064H106.775C105.916 58.6747 104.255 57.48 101.791 57.48C100.036 57.48 98.6363 58.1707 97.5909 59.552C96.5456 60.896 96.0229 62.8373 96.0229 65.376C96.0229 67.9147 96.5456 69.8747 97.5909 71.256C98.6363 72.6 100.036 73.272 101.791 73.272C104.255 73.272 105.916 72.0773 106.775 69.688H116.967C116.146 73.3467 114.41 76.2213 111.759 78.312C109.108 80.4027 105.842 81.448 101.959 81.448C98.8976 81.448 96.1723 80.7947 93.7829 79.488C91.4309 78.1813 89.5829 76.3147 88.2389 73.888C86.9323 71.4613 86.2789 68.624 86.2789 65.376ZM136.313 81.448C133.252 81.448 130.489 80.7947 128.025 79.488C125.599 78.1813 123.676 76.3147 122.257 73.888C120.876 71.4613 120.185 68.624 120.185 65.376C120.185 62.1653 120.895 59.3467 122.313 56.92C123.732 54.456 125.673 52.5707 128.137 51.264C130.601 49.9573 133.364 49.304 136.425 49.304C139.487 49.304 142.249 49.9573 144.713 51.264C147.177 52.5707 149.119 54.456 150.537 56.92C151.956 59.3467 152.665 62.1653 152.665 65.376C152.665 68.5867 151.937 71.424 150.481 73.888C149.063 76.3147 147.103 78.1813 144.601 79.488C142.137 80.7947 139.375 81.448 136.313 81.448ZM136.313 73.16C138.143 73.16 139.692 72.488 140.961 71.144C142.268 69.8 142.921 67.8773 142.921 65.376C142.921 62.8747 142.287 60.952 141.017 59.608C139.785 58.264 138.255 57.592 136.425 57.592C134.559 57.592 133.009 58.264 131.777 59.608C130.545 60.9147 129.929 62.8373 129.929 65.376C129.929 67.8773 130.527 69.8 131.721 71.144C132.953 72.488 134.484 73.16 136.313 73.16Z" fill="#5D92E1"/>
<path d="M78.2705 94.9695C79.3882 101.421 83.0229 107.164 88.3751 110.936C93.7273 114.707 100.358 116.198 106.81 115.08C112.795 114.037 118.186 110.824 121.95 106.055L128.794 97.3522" stroke="#7ABF25" stroke-width="8" stroke-linecap="round" stroke-linejoin="round"/>
<path d="M128.795 33.7266C127.223 27.3706 123.19 21.8995 117.584 18.5167C111.978 15.134 105.258 14.1168 98.9021 15.6889C93.0058 17.1536 87.8567 20.7412 84.4401 25.765L78.2299 34.9305" stroke="#FFB627" stroke-width="8" stroke-linecap="round" stroke-linejoin="round"/>
</svg>
